<svg id="Capa_1" enable-background="new 0 0 512 512" height="512" viewBox="0 0 512 512" width="512" xmlns="http://www.w3.org/2000/svg"><g><g><path d="m311.412 329.619c2.93.931 7.384.086 9.538-4.638l30.105-87.078c1.354-3.915-.723-8.186-4.638-9.539-3.916-1.354-8.186.724-9.538 4.638l-14.512 41.974-14.898-42.03c-1.384-3.904-5.67-5.948-9.575-4.563-3.904 1.384-5.947 5.67-4.563 9.575l21.179 59.747-7.735 22.374c-1.354 3.916.722 8.187 4.637 9.54z"/><path d="m111.002 299.627c2.098 1.646 7.044 2.511 10.504-1.473l17.14-22.731 18.05 23.783c2.381 2.163 5.205 4.561 10.509 1.44 3.3-2.504 3.944-7.208 1.44-10.508l-20.614-27.162 17.348-23.008c2.494-3.307 1.834-8.01-1.473-10.503-3.309-2.496-8.012-1.834-10.504 1.473l-14.795 19.622-14.905-19.64c-2.504-3.299-7.209-3.945-10.509-1.44-3.3 2.504-3.944 7.208-1.44 10.508l17.469 23.019-19.693 26.118c-2.494 3.306-1.834 8.008 1.473 10.502z"/><path d="m231.809 296.789c4.143 0 7.5-3.358 7.5-7.5v-15.827h15.279c4.143 0 7.5-3.358 7.5-7.5s-3.357-7.5-7.5-7.5h-15.279v-15.279c0-4.142-3.357-7.5-7.5-7.5s-7.5 3.358-7.5 7.5v15.279h-15.826c-4.143 0-7.5 3.358-7.5 7.5s3.357 7.5 7.5 7.5h15.826v15.827c0 4.142 3.357 7.5 7.5 7.5z"/><path d="m72.49 223.77c-3.843-1.537-8.211.332-9.749 4.179-.493 1.234-11.947 30.713-.283 74.463.895 3.355 3.927 5.57 7.242 5.57 3.848.077 8.423-4.039 7.252-9.434-10.275-38.54-.424-64.666-.273-65.054 1.519-3.84-.352-8.189-4.189-9.724z"/><path d="m387.85 305.605c3.065.823 7.591-.685 9.179-5.315 11.663-43.75.21-73.229-.283-74.463-1.538-3.846-5.903-5.717-9.749-4.179s-5.717 5.903-4.179 9.749c.103.256 10.111 26.038-.283 65.029-1.067 4.002 1.312 8.112 5.315 9.179z"/><path d="m433.158 191.361c-8.178 11.684-13.056 18.071-15.676 21.502-3.374 4.417-5.232 6.851-3.985 10.907.734 2.385 2.608 4.289 5.014 5.09.999.333 1.798.599 11.997.599 3.986 0 9.409-.041 16.84-.134 4.143-.052 7.458-3.452 7.405-7.594-.051-4.11-3.398-7.406-7.497-7.406-.032 0-.064 0-.096 0-4.027.051-8.259.088-12.09.106 2.665-3.611 6.076-8.327 10.377-14.471 3.459-5.312 6.839-10.979 7.113-17.537 0-11.437-9.305-20.742-20.742-20.742-9.889 0-18.448 7.036-20.353 16.729-.799 4.064 1.85 8.007 5.914 8.805 4.068.798 8.006-1.849 8.805-5.914.785-5.611 11.695-6.438 11.234 1.75-.441 1.693-1.547 4.433-4.26 8.31z"/><path d="m504.5 397.35h-8v-15.736c0-11.927-9.703-21.63-21.63-21.63h-101.76c-11.927 0-21.63 9.703-21.63 21.63v15.623h-320.98v-262.059c0-5.315 4.324-9.64 9.64-9.64h431.72c5.315 0 9.64 4.324 9.64 9.64v199.353c0 4.142 3.357 7.5 7.5 7.5s7.5-3.358 7.5-7.5v-199.353c0-13.586-11.054-24.64-24.64-24.64h-19.99v-19.833c0-7.459-2.902-14.463-8.167-19.714-5.267-5.266-12.268-8.166-19.713-8.166-15.367 0-27.87 12.507-27.87 27.88v19.833h-280.65v-19.833c0-7.461-2.903-14.464-8.159-19.706-5.256-5.271-12.257-8.174-19.711-8.174-15.367 0-27.869 12.507-27.869 27.88v19.833h-19.591c-13.586 0-24.64 11.053-24.64 24.64v262.172h-8c-4.143 0-7.5 3.358-7.5 7.5v36.825c0 4.142 3.357 7.5 7.5 7.5h45.318c4.143 0 7.5-3.358 7.5-7.5s-3.357-7.5-7.5-7.5h-37.818v-21.825h343.893c.029 0 .058.004.087.004s.058-.004.087-.004h129.845c.029 0 .058.004.087.004s.058-.004.087-.004h7.914v21.825h-408.017c-4.143 0-7.5 3.358-7.5 7.5s3.357 7.5 7.5 7.5h415.517c4.143 0 7.5-3.358 7.5-7.5v-36.825c0-4.142-3.357-7.5-7.5-7.5zm-93.38-306.645c0-7.102 5.773-12.88 12.87-12.88 3.439 0 6.674 1.34 9.113 3.78 2.429 2.422 3.767 5.654 3.767 9.1v19.833h-25.75zm-336.39 0c0-7.102 5.773-12.88 12.869-12.88 3.44 0 6.668 1.337 9.104 3.78 2.429 2.422 3.766 5.653 3.766 9.1v19.833h-25.739zm291.75 290.909c0-3.656 2.975-6.63 6.63-6.63h101.76c3.655 0 6.63 2.974 6.63 6.63v15.623h-115.02z"/></g></g></svg>