<?xml version="1.0" ?><!DOCTYPE svg  PUBLIC '-//W3C//DTD SVG 1.1//EN'  'http://www.w3.org/Graphics/SVG/1.1/DTD/svg11.dtd'><svg enable-background="new 0 0 64 64" height="64px" id="Layer_1" version="1.1" viewBox="0 0 64 64" width="64px" xml:space="preserve" xmlns="http://www.w3.org/2000/svg" xmlns:xlink="http://www.w3.org/1999/xlink"><path d="M45.288,61.543H33.086c-0.901,0-1.632-0.218-2.19-0.655c-0.56-0.437-1.004-0.954-1.332-1.556L21.989,46.31  c-0.137,0.466-0.301,0.902-0.492,1.312c-0.191,0.41-0.396,0.792-0.614,1.146l-6.224,10.565c-0.383,0.546-0.833,1.052-1.352,1.516  c-0.519,0.464-1.187,0.695-2.006,0.695H0l14.25-21.947L0.574,19.08h12.202c0.901,0,1.563,0.117,1.985,0.349s0.799,0.621,1.127,1.167  l7.575,12.57c0.164-0.49,0.369-0.976,0.615-1.454c0.246-0.476,0.518-0.962,0.818-1.454l5.406-9.459  c0.382-0.6,0.784-1.037,1.208-1.31c0.423-0.273,0.949-0.41,1.577-0.41h11.629L31.038,39.022L45.288,61.543z"/><path d="M49.587,55.115c0-0.984,0.186-1.897,0.554-2.745c0.367-0.846,0.871-1.582,1.516-2.21c0.64-0.627,1.397-1.127,2.271-1.495  c0.874-0.368,1.828-0.552,2.867-0.552c1.008,0,1.952,0.184,2.825,0.552c0.874,0.368,1.638,0.868,2.294,1.495  c0.655,0.628,1.167,1.364,1.535,2.21C63.816,53.218,64,54.131,64,55.115c0,0.981-0.184,1.903-0.552,2.763  c-0.368,0.86-0.88,1.604-1.535,2.231c-0.656,0.628-1.42,1.12-2.294,1.474c-0.873,0.355-1.817,0.534-2.825,0.534  c-1.039,0-1.993-0.179-2.867-0.534c-0.873-0.354-1.631-0.846-2.271-1.474c-0.645-0.628-1.148-1.371-1.516-2.231  C49.772,57.019,49.587,56.097,49.587,55.115z M62.853,1.883v23.421c0,2.513-0.148,5.002-0.448,7.474  c-0.302,2.471-0.695,4.989-1.188,7.554h-8.602c-0.489-2.565-0.886-5.083-1.186-7.554c-0.302-2.471-0.449-4.96-0.449-7.474V1.883  H62.853z"/></svg>