<svg id="Layer_1" enable-background="new 0 0 512 512" height="512" viewBox="0 0 512 512" width="512" xmlns="http://www.w3.org/2000/svg"><path d="m492 512h-372c-66.168 0-120-53.832-120-120v-372c0-11.046 8.954-20 20-20s20 8.954 20 20v372c0 44.112 35.888 80 80 80h372c11.046 0 20 8.954 20 20s-8.954 20-20 20zm-184-260v-47c-.974-26.489-39.02-26.505-40 0v47c.974 26.489 39.02 26.505 40 0zm82 41v-128c-.964-26.466-39.012-26.526-40 0v128c0 11.046 8.954 20 20 20s20-8.954 20-20zm82 15v-159c0-11.046-8.954-20-20-20s-20 8.954-20 20v159c.96 26.457 39.009 26.534 40 0zm20 100c-217.906 4.272-380.72-123.457-413.819-306.328-2.582-26.313 35.046-31.528 39.634-5.389 27.503 154.795 171.307 277.43 374.188 271.712 26.408.931 26.568 39.009-.003 40.005zm-275.433-225.427c67.246-62.091 159.915-93.573 275.433-93.573 11.046 0 20-8.954 20-20s-8.954-20-20-20c-125.896 0-227.695 35.053-302.567 104.184-8.115 7.493-8.62 20.146-1.127 28.262 7.508 8.13 20.164 8.606 28.261 1.127zm-98.753 178.144c.03-.216 3.145-21.959 14.783-52.619 3.92-10.327-1.273-21.876-11.601-25.796-10.33-3.921-21.876 1.274-25.796 11.6-13.396 35.287-16.88 60.373-17.021 61.423-2.587 26.263 34.988 31.517 39.635 5.392z"/></svg>