<svg id="Layer_1" enable-background="new 0 0 512.001 512.001" height="512" viewBox="0 0 512.001 512.001" width="512" xmlns="http://www.w3.org/2000/svg"><path d="m512.001 256.001c0 11.046-8.954 20-20 20h-210c-11.046 0-20-8.954-20-20s8.954-20 20-20h210c11.046 0 20 8.954 20 20zm-395-20h-77v-216c-.913-26.359-38.977-26.624-40 0v472c.915 26.36 38.976 26.623 40 0v-216h77c11.046 0 20-8.954 20-20s-8.954-20-20-20zm294.964-39.995c-12.656.133-22.539-12.173-19.501-24.52 12.236-52.8 23.001-87.976 34.904-114.056 7.768-17.02 15.934-29.808 24.963-39.096 11.827-12.165 25.174-18.333 39.669-18.333 11.046 0 20 8.954 20 20s-8.954 20-20 20c-8.076 0-18.37 12.406-28.243 34.037-10.603 23.231-20.874 57.065-32.326 106.479-2.141 9.241-10.369 15.489-19.466 15.489zm-75.956 297.884c9.144-9.233 17.407-21.949 25.264-38.871 12.093-26.047 22.951-61.041 35.21-113.464 2.515-10.756-4.165-21.514-14.921-24.028-10.751-2.517-21.513 4.165-24.028 14.921-11.454 48.981-21.794 82.577-32.542 105.728-9.979 21.497-20.477 33.826-28.798 33.826-17.219-1.873-31.458-38.178-39.582-60.801-15.067-43.312-27.609-102.935-39.737-160.595-17.97-69.737-38.636-249.649-116.872-250.606-11.048.001-20.002 8.955-20.002 20.001s8.954 20 20 20c39.89 11.671 64.09 161.171 77.732 218.836 28.573 135.845 53.25 253.164 118.461 253.164 14.521 0 27.917-6.093 39.815-18.111z"/></svg>