<svg id="Capa_1" enable-background="new 0 0 512 512" height="512" viewBox="0 0 512 512" width="512" xmlns="http://www.w3.org/2000/svg"><g><path d="m430.612 178.667c-6.81-4.714-16.155-3.017-20.871 3.795l-32.667 47.186-32.667-47.186c-4.715-6.812-14.059-8.512-20.871-3.795-6.812 4.716-8.511 14.06-3.795 20.871l39.089 56.462-39.089 56.462c-4.716 6.811-3.017 16.155 3.795 20.871 2.604 1.803 5.579 2.668 8.524 2.668 4.756 0 9.435-2.257 12.347-6.463l32.667-47.186 32.667 47.186c2.912 4.207 7.59 6.463 12.347 6.463 2.944 0 5.92-.865 8.524-2.668 6.812-4.716 8.511-14.06 3.795-20.871l-39.089-56.462 39.089-56.462c4.716-6.811 3.016-16.155-3.795-20.871z"/><path d="m299.374 144.586c4.729-6.773 3.091-16.102-3.672-20.857-6.775-4.763-16.134-3.134-20.898 3.643-.763 1.085-18.792 27.093-27.748 71.673-8.143 40.531-10.166 105.236 26.437 183.321 2.552 5.443 7.953 8.637 13.592 8.637 2.132 0 4.299-.457 6.356-1.421 7.501-3.516 10.731-12.447 7.216-19.949-26.33-56.169-34.568-111.062-24.489-163.155 7.49-38.712 22.899-61.446 23.206-61.892z"/><path d="m507.092 199.046c-8.956-44.581-26.985-70.588-27.748-71.673-4.765-6.777-14.121-8.406-20.898-3.643-6.776 4.765-8.407 14.122-3.643 20.898.625.889 61.767 90.44-1.312 225.006-3.516 7.501-.285 16.433 7.216 19.949 2.058.965 4.224 1.421 6.356 1.421 5.638 0 11.04-3.194 13.592-8.637 36.602-78.085 34.58-142.79 26.437-183.321z"/><path d="m195 241h-43.017l16.784-134.836c5.405-43.421 42.478-76.164 86.233-76.164 8.284 0 15-6.716 15-15s-6.716-15-15-15c-58.861 0-108.732 44.047-116.003 102.458l-17.246 138.542h-46.751c-8.284 0-15 6.716-15 15s6.716 15 15 15h43.017l-16.784 134.836c-5.405 43.421-42.478 76.164-86.233 76.164-8.284 0-15 6.716-15 15s6.716 15 15 15c58.861 0 108.732-44.047 116.003-102.458l17.246-138.542h46.751c8.284 0 15-6.716 15-15s-6.716-15-15-15z"/></g></svg>