<svg id="Layer_3" enable-background="new 0 0 64 64" height="512" viewBox="0 0 64 64" width="512" xmlns="http://www.w3.org/2000/svg"><g><path d="m62.479 26.122-10.479-5.716v-7.406c0-.552-.447-1-1-1h-7v-4c0-.366-.2-.703-.521-.878l-11-6c-.297-.163-.66-.163-.957 0l-11 6c-.322.175-.522.512-.522.878v4h-7c-.553 0-1 .448-1 1v7.406l-10.479 5.716c-.321.175-.521.512-.521.878v10c0 .366.2.703.521.878l11 6c.149.081.314.122.479.122s.33-.041.479-.122l11-6c.321-.175.521-.512.521-.878v-10c0-.366-.2-.703-.521-.878l-10.479-5.716v-6.406h6v4c0 .366.2.703.521.878l11 6c.149.081.314.122.479.122s.33-.041.479-.122l11-6c.321-.175.521-.512.521-.878v-4h6v6.406l-10.479 5.716c-.321.175-.521.512-.521.878v10c0 .366.2.703.521.878l11 6c.149.081.314.122.479.122s.33-.041.479-.122l11-6c.321-.175.521-.512.521-.878v-10c0-.366-.2-.703-.521-.878zm-59.479 2.562 9 4.909v7.722l-9-4.909zm11 12.631v-7.722l9-4.909v7.722zm7.912-14.315-8.912 4.861-8.912-4.861 7.912-4.315v2.315h2v-2.315zm10.088-23.861 8.912 4.861-8.912 4.861-8.912-4.861zm-10 10.861h2v-2h-2v-2.316l9 4.909v7.722l-9-4.909zm20 3.406-9 4.909v-7.722l9-4.909v2.316h-2v2h2zm8 5.279v2.315h2v-2.315l7.912 4.315-8.912 4.861-8.912-4.861zm-9 5.999 9 4.909v7.722l-9-4.909zm11 12.631v-7.722l9-4.909v7.722z"/><path d="m50 50h-6v-4c0-.366-.2-.703-.521-.878l-11-6c-.297-.163-.66-.163-.957 0l-11 6c-.322.175-.522.512-.522.878v4h-6v-4h-2v5c0 .552.447 1 1 1h7v4c0 .366.2.703.521.878l11 6c.149.081.314.122.479.122s.33-.041.479-.122l11-6c.321-.175.521-.512.521-.878v-4h7c.553 0 1-.448 1-1v-5h-2zm-18-8.861 8.912 4.861-8.912 4.861-8.912-4.861zm-10 10.861h2v-2h-2v-2.316l9 4.909v7.722l-9-4.909zm20 3.406-9 4.909v-7.722l9-4.909v2.316h-2v2h2z"/></g></svg>